<svg width="1320" height="920" viewBox="0 0 1320 920" fill="none" xmlns="http://www.w3.org/2000/svg">
<g filter="url(#filter0_f_710_2)">
<path fill-rule="evenodd" clip-rule="evenodd" d="M437.787 4.57194C420.504 5.91214 415.969 8.44047 414.807 17.3839C414.34 20.995 413.44 57.2514 412.811 97.9542C412.183 138.657 411.441 175.609 411.161 180.069C410.342 193.187 408.929 259.879 407.808 338.217C407.234 378.362 406.532 425.35 406.244 442.635C405.958 459.92 406.068 478.247 406.486 483.36C407.634 497.371 411.657 499.412 438.051 499.378C449.684 499.364 460.903 498.812 462.978 498.153C471.519 495.442 471.62 494.404 472.806 395.888C473.416 345.212 474.635 295.444 475.514 285.296C479.066 244.342 493.861 219.606 514.803 219.606C527.657 219.606 537.292 229.071 545.48 249.735L550.01 261.171L550.293 375.031C550.489 453.156 551.167 490.197 552.455 493.048C554.953 498.571 561.418 499.725 585.811 498.999C613.963 498.161 612.258 501.935 612.9 439.081C613.31 399.157 613.807 390.552 615.546 393.342C616.725 395.231 617.687 397.973 617.687 399.434C617.687 403.506 627.817 437.185 629.717 439.434C630.64 440.527 631.394 443.116 631.394 445.188C631.394 447.26 632.055 448.475 632.862 447.882C633.669 447.292 636.375 451.252 638.873 456.684C644.177 468.219 660.596 486.919 670.14 492.298C688.121 502.429 693.708 503.954 716.506 504.958L739.081 505.949L738.182 527.516C737.688 539.377 736.773 549.728 736.151 550.518C735.529 551.309 730.016 553.462 723.899 555.305C717.783 557.148 711.436 559.494 709.795 560.52C707.78 561.779 705.167 561.376 701.742 559.279C698.127 557.067 691.466 556.177 678.542 556.177C658.994 556.177 650.155 558.928 646.951 566.011C645.704 568.77 645.101 600.146 645.101 662.343C645.101 715.827 644.344 761.027 643.298 769.924C639.178 804.984 623.223 827.482 598.618 832.932C594.807 833.775 588.175 833.061 581.485 831.087C568.011 827.109 561.195 818.942 556.035 800.597C549.899 778.772 548.887 756.715 549.462 657.359C549.885 584.555 549.526 562.191 547.893 559.865C543.173 553.134 532.874 551.287 511.962 553.424C493.463 555.313 491.831 555.83 488.077 560.997L484.047 566.542L484.078 679.464C484.112 799.682 485.15 819.895 492.641 846.21C498.794 867.821 502.943 876.147 513.138 887.316C529.504 905.246 547.064 912.975 571.427 912.975C594.739 912.975 606.863 907.953 625.79 890.451C631.658 885.023 637.211 880.583 638.128 880.583C639.046 880.583 642.176 884.674 645.084 889.676C652.391 902.247 655.264 903.587 673.888 903.129C692.225 902.677 702.542 898.883 703.988 892.065C705.049 887.061 706.272 823.125 707.735 696.108C708.282 648.73 709.062 609.574 709.468 609.092C709.875 608.611 710.208 611.983 710.208 616.586C710.208 627.04 713.945 631.512 725.642 635.06C740.44 639.547 739.41 631.567 739.222 740.352C739.115 801.799 739.724 840.928 740.89 847.804C744.61 869.715 753.966 886.757 767.899 896.998C778.454 904.757 811.589 909.465 824.589 905.053C835.208 901.45 836.342 898.02 837.888 864.851C838.719 847.005 838.381 842.781 835.509 835.101C833.669 830.178 832.47 825.787 832.847 825.343C833.222 824.899 829.49 824.337 824.553 824.098C813.731 823.571 809.199 822.131 810.502 819.633C811.036 818.611 810.329 818.295 808.93 818.932C807.258 819.69 805.319 817.772 803.273 813.331C800.436 807.18 800.112 799.331 799.641 725.304C799.197 655.407 799.48 643.682 801.668 641.534C803.066 640.16 808.785 638.272 814.377 637.335C825.336 635.502 835.067 630.58 835.633 626.581C835.826 625.217 836.46 666.526 837.039 718.38C838.157 818.335 838.39 821.328 847.801 856.739C855.126 884.291 872.415 903.946 896.669 912.291C910.614 917.089 929.779 913.999 945.172 904.473C951.222 900.728 962.069 889.338 962.069 886.728C962.069 881.605 968.352 885.285 971.492 892.247C975.777 901.746 984.256 906.937 995.479 906.927C1004.74 906.918 1016.2 903.83 1017.71 900.939C1021.16 894.34 1022.15 861.621 1023.12 722.668C1024.16 572.286 1024.09 567.221 1020.98 563.981C1014 556.739 987.969 553.478 976.125 558.365C971.502 560.271 970.605 561.897 969.119 571.037C968.182 576.803 967.041 626.228 966.582 680.871L965.746 780.22L961.389 796.477C953.41 826.243 936.322 838.357 915.932 828.702C908.655 825.257 901.8 816.138 897.651 804.388C894.287 794.863 893.65 776.23 892.836 663.637C892.461 611.782 891.652 567.882 891.037 566.082C889.038 560.222 881.737 558.205 862.532 558.205C844.547 558.205 843.5 558.44 839.651 563.357L835.616 568.509L832.05 562.584C828.839 557.248 827.225 556.52 815.808 555.255C797.311 553.203 797.184 552.797 797.891 498.392L798.445 455.814L803.218 447.122C806.031 441.999 808.778 439.006 809.907 439.833C811.062 440.677 811.346 440.318 810.621 438.931C809.958 437.664 810.997 430.352 812.926 422.684C816.911 406.851 817.314 398.475 814.446 391.028C812.246 385.313 813.246 385.493 785.595 385.858C768.533 386.085 767.354 386.379 762.77 391.555C760.109 394.558 756.312 400.424 754.328 404.59C747.057 419.87 728.602 429.775 713.652 426.419C701.626 423.72 694.62 419.823 688.255 412.289C684.182 407.47 682.959 404.528 683.708 401.355C684.369 398.557 684.198 397.92 683.228 399.56C680.435 404.288 675.497 387.902 674.605 370.946C673.964 358.774 674.325 354.571 676.138 353.14C677.534 352.037 692.613 351.804 712.778 352.574C731.625 353.294 761.308 353.987 778.741 354.115C813.795 354.375 820.247 352.84 823.007 343.588C824.129 339.825 824.676 348.535 824.834 372.685C825.209 429.781 828.199 456.862 835.307 467.558C837.178 470.372 838.708 473.62 838.708 474.776C838.708 478.328 855.357 494.076 862.215 497.008C873.331 501.764 888.476 504.931 896.739 504.228C924.35 501.878 925.228 500.795 926.472 467.584C927.574 438.171 926.077 422.763 921.752 419.023C920.008 417.512 914.414 416.277 909.32 416.277C897.013 416.277 890.909 411.853 887.663 400.584C884.23 388.66 883.003 227.203 886.315 223.284C891.054 217.676 932.323 217.287 935.796 222.818C937.136 224.949 937.796 237.481 937.801 260.818C937.804 279.97 938.248 311.15 938.788 330.107C939.326 349.064 940.174 381.061 940.669 401.211C941.164 421.36 942.22 440.52 943.015 443.789C946.344 457.487 956.038 478.616 962.101 485.392C971.17 495.521 991.782 503.461 1009.01 503.461C1033.52 503.461 1035.9 499.581 1036.08 459.22C1036.15 443.965 1035.63 428.404 1034.93 424.641C1034.04 419.836 1034.23 418.209 1035.56 419.185C1036.6 419.947 1037.46 421.36 1037.46 422.325C1037.46 423.288 1041.43 431.95 1046.29 441.569C1058.26 465.281 1073.97 482.336 1095.42 494.917L1111.71 504.475L1134.12 504.392C1155.75 504.313 1156.9 504.088 1167.11 497.981C1189.65 484.502 1204.07 470.279 1214.99 450.751C1218.45 444.549 1220.03 443.116 1221.22 445.078C1222.36 446.956 1222.53 446.658 1221.82 444.036C1221.23 441.873 1223.59 433.655 1227.59 423.996C1251.75 365.67 1251.39 263.083 1226.83 208.704C1211.23 174.163 1183.3 142.619 1158.25 131.242C1146.38 125.857 1114.2 125.731 1101.39 131.021C1083.4 138.448 1061.17 159.995 1046.19 184.52C1014.49 236.437 1006.98 325.365 1028.1 398.958C1029.56 404.067 1030.22 409.284 1029.56 410.549C1028.87 411.877 1029.12 412.293 1030.16 411.533C1031.15 410.809 1032.33 411.381 1032.8 412.802C1033.43 414.761 1030.67 415.328 1021.41 415.148C999.728 414.722 999.87 415.053 998.861 362.981C996.918 262.718 996.567 228.122 997.453 224.109C998.434 219.673 1007.92 216.21 1022.3 215.044C1025.74 214.767 1028.23 213.917 1027.84 213.157C1027.44 212.398 1027.9 211.204 1028.86 210.503C1031.19 208.802 1031.12 158.018 1028.78 148.038C1026.68 139.123 1022.51 136.494 1010.36 136.447C996.834 136.394 997.396 138.408 995.82 84.3555C994.574 41.6718 994.05 35.6784 991.271 32.3289C988.519 29.0139 985.543 28.5759 967.248 28.799C945.792 29.0625 941.187 30.3216 938.848 36.5644C938.106 38.5473 937.227 58.8734 936.895 81.7339C936.561 104.594 935.887 126.263 935.394 129.888C934.39 137.29 937.225 136.631 905.83 136.759C880.145 136.865 881.542 139.75 881.542 86.5837C881.542 40.6945 880.74 35.139 873.563 31.2685C868.053 28.2981 836.642 28.3712 831.084 31.3679C824.517 34.91 823.309 43.8514 823.298 89.0229C823.286 135.942 823.364 135.697 807.92 137.862C795.724 139.571 792.207 145.917 792.671 165.384C792.851 172.918 792.577 179.581 792.061 180.189C791.547 180.797 789.441 178.07 787.382 174.127C781.86 163.553 767.255 149.658 753.879 142.252C743.524 136.518 739.933 135.63 723.964 134.851C707.203 134.032 704.908 134.393 693.878 139.581C665.858 152.762 645.365 175.412 631.559 208.455C626.898 219.606 621.363 236.029 619.257 244.95C617.149 253.872 614.795 262.016 614.026 263.05C613.257 264.082 612.715 258.608 612.822 250.885C613.159 226.526 607.981 196.421 600.196 177.486C592.445 158.632 586.642 151.883 570.034 142.404C552.024 132.124 530.626 130.401 513.174 137.822C505.56 141.06 492.758 151.868 487.167 159.778C484.801 163.125 483.888 163.381 482.027 161.213C480.238 159.129 479.757 143.801 479.733 88.222C479.7 15.2064 479.352 11.3379 472.432 6.95433C468.115 4.21918 454.446 3.2804 437.787 4.57194ZM258.743 133.588C240.501 138.72 226.357 147.535 214.302 161.284C209.643 166.598 205.364 170.945 204.79 170.945C202.747 170.945 186.212 202.573 181.997 214.537C168.193 253.73 162.681 307.423 167.845 352.41C171.229 381.892 174.249 396.876 180.313 414.25C192.928 450.401 213.367 475.222 239.896 486.606C246.477 489.431 253.424 490.272 269.879 490.242C289.651 490.205 292.086 489.769 301.576 484.569C307.23 481.471 315.812 474.328 320.647 468.697C325.945 462.525 329.891 459.328 330.581 460.648C332.433 464.198 332.116 483.095 329.939 498.719C327.991 512.705 319.386 536.062 312.961 544.805C305.202 555.362 286.238 559.073 271.144 552.986C261.894 549.257 250.346 536.749 243.948 523.532C238.517 512.311 236.265 511.626 204.726 511.594C178.863 511.567 175.635 513.21 175.665 526.387C175.735 558.957 200.299 599.812 229.556 616.022L242.68 623.293L239.19 629.779C232.268 642.648 225.159 660.814 222.769 671.747C216.583 700.049 214.211 747.339 217.662 773.628L218.394 779.202L193.017 778.697C163.894 778.117 163.294 778.389 159.41 793.871C153.295 818.236 142.359 829.917 124.228 831.454C104.158 833.153 90.4961 821.417 79.1418 792.728C70.1708 770.056 68.5602 758.641 68.6579 718.38C68.7418 683.026 68.7641 682.835 74.4781 665.664C85.1179 633.696 101.643 621.845 125.102 629.359C133.374 632.007 145.16 644.955 149.725 656.41C151.53 660.942 154.981 667.158 157.392 670.226C161.547 675.512 162.648 675.822 178.562 676.185C187.795 676.394 199.057 676.698 203.587 676.86C219.079 677.414 221.813 665.155 213.396 632.901C207.378 609.848 186.471 578.085 166.801 562.116C155.843 553.221 134.861 544.178 121.343 542.528C108.281 540.932 87.8679 545.431 73.8544 552.994C34.6138 574.171 8.30375 628.956 4.65091 697.091C1.68855 752.343 8.80578 797.786 26.6571 837.575C45.7454 880.121 78.2731 907.095 114.954 910.793C135.591 912.875 149.195 910.736 162.295 903.356C184.476 890.856 200.009 872.923 209.81 848.495C212.64 841.439 215.556 836.107 216.29 836.642C217.023 837.179 217.715 834.738 217.83 831.223C218.152 821.286 222.449 797.454 223.919 797.454C224.644 797.454 226.506 802.699 228.06 809.112C236.123 842.421 255.547 872.521 282.565 893.575C314.556 918.508 356.687 923.001 392.383 905.29C407.205 897.936 429.842 879.8 436.874 869.644C440.203 864.837 442.927 860.354 442.927 859.683C442.927 859.014 444.724 856.338 446.919 853.74C449.115 851.141 454.439 841.291 458.751 831.851C483.228 778.249 481.799 697.833 455.357 641.07C441.859 612.093 415.664 580.621 393.296 566.514C382.408 559.646 381.444 557.42 385.415 548.331C387.949 542.53 394.002 515.963 395.635 503.461C397.189 491.578 398.044 460.851 401.027 309.832C401.445 288.644 402.12 245.93 402.528 214.91L403.27 158.513L398.392 152.057L393.514 145.601H375.815C355.012 145.601 350.156 148.369 343.135 164.234C340.808 169.492 338.118 174.102 337.157 174.481C336.198 174.861 332.682 170.676 329.348 165.181C321.605 152.43 314.147 145.757 300.497 139.369C289.874 134.397 267.082 131.242 258.743 133.588ZM1117.85 189.1C1098.18 193.327 1078.95 213.917 1067.33 243.195C1057.23 268.64 1055.43 279.828 1055.51 316.928C1055.59 353.92 1058.04 367.679 1069.23 393.974C1082.37 424.84 1100.49 443.829 1122.61 449.898C1135.24 453.365 1145.5 451.844 1157.23 444.758C1173.21 435.109 1192.31 407.561 1200.04 382.985C1211.97 345.076 1212.92 299.199 1202.54 262.037C1188.45 211.567 1153.47 181.442 1117.85 189.1ZM1111.99 216.713C1104.39 221.39 1100.2 226.658 1095.57 237.378C1090.29 249.612 1089.96 272.01 1094.82 287.948L1098.05 298.506L1090.86 310.251C1077.16 332.635 1076.03 336.216 1076.43 355.999C1076.7 368.928 1077.82 376.675 1080.54 384.384C1089.88 410.892 1101.19 419.925 1123.36 418.578C1127.65 418.319 1144.85 405.965 1147.49 401.249C1148.36 399.69 1149.62 399.795 1151.77 401.606C1161.54 409.824 1165.59 412.208 1169.81 412.214C1175.58 412.224 1181.38 405.777 1181.38 399.345C1181.38 394.343 1178.1 381.517 1176.38 379.782C1174.08 377.46 1167.67 359.046 1167.67 354.764C1167.67 352.215 1169.18 346.431 1171.03 341.909C1183.09 312.35 1182.28 296.653 1168.67 296.653C1162.12 296.653 1159.5 299.684 1153.19 314.588C1148.74 325.093 1148.5 325.318 1145.28 321.877C1140.45 316.697 1141.16 308.595 1147.15 300.657C1160.27 283.269 1160.74 246.7 1148.1 227.088C1140.18 214.805 1123.07 209.89 1111.99 216.713ZM807.87 218.457C807.897 221.2 814.509 237.917 815.064 236.652C815.51 235.64 815.676 235.837 815.434 237.09C815.193 238.343 816.766 249.748 818.926 262.434L822.858 285.501L823.501 263.198C823.855 250.932 823.759 236.333 823.288 230.758L822.432 220.62L815.15 219.47C811.146 218.838 807.868 218.382 807.87 218.457ZM265.598 223.682C251.946 231.999 246.054 243.485 239.666 274.232C235.607 293.769 235.296 298.208 236.092 325.038C236.812 349.208 237.758 357.359 241.416 370.86C249.191 399.564 264.138 414.25 285.58 414.25C299.323 414.25 308.854 407.833 318.71 391.947C335.046 365.609 341.223 304.901 330.837 272.738C323.349 249.551 311.551 231.374 299.647 224.689C289.694 219.101 273.885 218.633 265.598 223.682ZM703.354 223.893C695.709 227.463 686.6 235.977 681.977 243.87C676.799 252.712 670.645 274.826 672.418 278.222C673.263 279.838 686.296 280.345 717.181 279.962L760.751 279.419L760.46 271.201C759.999 258.172 751.914 240.291 743.179 232.978C739.055 229.527 733.227 225.632 730.226 224.322C723.551 221.411 709.161 221.18 703.354 223.893ZM1119.81 262.884C1118.21 268.016 1119.25 273.415 1122.45 276.56C1126.39 280.428 1130.24 274.988 1129.64 266.414C1129.21 260.408 1128.42 259.103 1125.13 258.906C1122.53 258.75 1120.67 260.143 1119.81 262.884ZM823.424 293.78C823.506 296.142 823.912 296.622 824.458 295.006C824.954 293.542 824.892 291.793 824.323 291.119C823.754 290.446 823.35 291.643 823.424 293.78ZM1056.64 328.079C1056.67 331.425 1057.05 332.548 1057.49 330.575C1057.92 328.603 1057.9 325.865 1057.43 324.493C1056.96 323.12 1056.6 324.734 1056.64 328.079ZM1109.51 347.59C1105.81 357.383 1107.13 366.446 1113.11 372.274C1118.04 377.075 1123.28 375.96 1126.35 369.459C1128.6 364.703 1128.48 363.361 1125.09 355.267C1117.29 336.648 1114.23 335.135 1109.51 347.59ZM1133.4 551.615C1133.4 552.453 1128.86 553.233 1123.33 553.353C1115.35 553.523 1111.18 554.948 1103.2 560.23C1097.67 563.894 1092.15 568.338 1090.95 570.106C1089.43 572.343 1088.07 572.718 1086.48 571.339C1077.33 563.391 1073.84 561.264 1066.07 558.88C1049.8 553.884 1037.1 555.976 1032.66 564.381C1031.23 567.104 1030.39 590.197 1029.83 642.804C1029.39 683.812 1028.52 756.382 1027.9 804.068C1026.64 901.323 1026.64 901.318 1037.36 905.12C1047.11 908.575 1074.32 906.764 1078 902.415C1082.58 896.988 1083.53 878.705 1083.65 793.399C1083.76 724.505 1084.15 713.196 1087.05 697.091C1091.95 669.865 1098.44 656.068 1109.49 649.397C1113.14 647.193 1117.9 645.383 1120.06 645.377C1122.21 645.368 1126.18 644.006 1128.87 642.345C1133.4 639.549 1133.67 639.588 1132.51 642.864C1131.82 644.811 1128.95 656.439 1126.15 668.705C1121.32 689.792 1121.03 693.275 1120.8 732.573C1120.66 755.433 1121.11 779.612 1121.78 786.302C1123.48 803.084 1131.75 832.771 1140.58 853.724C1149.56 875.031 1166.61 896.507 1182.42 906.403C1203.91 919.856 1233.99 918.887 1258.38 903.956C1281.14 890.027 1306.45 840.192 1306.45 809.299C1306.45 797.034 1303.18 794.24 1287.2 792.847C1276.66 791.931 1274.97 792.353 1267.88 797.673C1263.61 800.878 1259.41 805.564 1258.54 808.082C1257.67 810.6 1254.99 814.81 1252.58 817.435C1250.17 820.061 1248.2 822.989 1248.2 823.94C1248.2 824.89 1244.66 828.12 1240.34 831.117C1226.18 840.94 1203.11 837.727 1193.08 824.534C1185.99 815.221 1181.37 800.116 1181.19 785.658C1181.09 777.827 1181.52 770.435 1182.15 769.231C1182.93 767.732 1201.66 767.041 1241.5 767.041C1314.25 767.041 1314.96 766.804 1315.52 742.354C1317.76 644.653 1288.63 574.431 1238.77 557.276C1221.89 551.471 1199.54 554.071 1183.38 563.718C1174.78 568.855 1153.96 590.171 1153.96 593.847C1153.96 594.777 1150.99 600.596 1147.35 606.778C1143.72 612.958 1140.06 620.525 1139.22 623.593C1138.19 627.321 1137.69 617.782 1137.69 594.802C1137.69 571.234 1137.06 559.689 1135.68 558.059C1134.57 556.753 1134.08 554.425 1134.58 552.888C1135.07 551.352 1135.01 550.095 1134.44 550.095C1133.87 550.095 1133.4 550.778 1133.4 551.615ZM1209.2 639.985C1199.83 644.006 1192.24 652.745 1186.68 665.922C1180.97 679.433 1179.78 691.985 1183.82 695.957C1187.11 699.179 1256.05 698.549 1258.3 695.276C1259.93 692.902 1257.93 673.622 1255.15 664.975C1252.45 656.552 1242.67 645.046 1234.83 641.074C1226.42 636.808 1217.49 636.429 1209.2 639.985ZM333.273 641.248C320.594 644.182 305.256 656.992 299.232 669.675C292.639 683.557 288.222 712.297 288.317 740.683C288.45 780.836 294.565 803.987 309.571 821.158C335.194 850.482 376.495 840.156 394.631 799.891C405.336 776.122 408.492 734.722 401.839 705.343C397.527 686.3 395.829 681.694 387.418 666.203C381.646 655.571 378.91 652.623 370.192 647.645C359.211 641.372 344.069 638.749 333.273 641.248ZM459.313 643.955C459.957 645.954 460.915 647.08 461.443 646.455C461.971 645.833 461.445 644.196 460.273 642.82C458.58 640.833 458.384 641.066 459.313 643.955ZM181.642 892.748C181.06 893.863 181.401 894.776 182.398 894.776C183.395 894.776 184.212 893.863 184.212 892.748C184.212 891.633 183.873 890.72 183.457 890.72C183.04 890.72 182.225 891.633 181.642 892.748Z" fill="white"/>
</g>
<defs>
<filter id="filter0_f_710_2" x="0" y="0" width="1319.64" height="920" filterUnits="userSpaceOnUse" color-interpolation-filters="sRGB">
<feFlood flood-opacity="0" result="BackgroundImageFix"/>
<feBlend mode="normal" in="SourceGraphic" in2="BackgroundImageFix" result="shape"/>
<feGaussianBlur stdDeviation="2" result="effect1_foregroundBlur_710_2"/>
</filter>
</defs>
</svg>
