<svg width="1186" height="281" viewBox="0 0 1186 281" fill="none" xmlns="http://www.w3.org/2000/svg">
<path fill-rule="evenodd" clip-rule="evenodd" d="M673.483 1.78728C663.545 4.45969 655.531 9.30255 648.022 17.1744C639.802 25.7942 634.37 36.2938 630.056 51.9046L626.769 63.8043L626.767 140.212C626.763 216.356 626.773 216.66 629.69 228.23C637.574 259.511 654.963 277.607 679.612 280.184C702.412 282.567 724.273 269.535 735.233 247.028C744.325 228.358 744.487 226.749 745.076 148.417C745.713 63.6341 744.96 55.7411 734.125 33.6102C725.787 16.5793 713.408 6.1829 696.098 1.67422C687.408 -0.589439 682.222 -0.563345 673.483 1.78728ZM1076.51 2.80481C1055.64 9.42433 1041.58 26.572 1034.62 53.9148C1031.82 64.9088 1031.79 65.9872 1031.8 140.833L1031.82 216.62L1035.15 228.72C1041.41 251.543 1052.61 267.471 1067.46 274.696C1089.11 285.23 1111.49 281.369 1128.5 264.163C1137.43 255.138 1142.92 245.415 1146.95 231.485C1149.81 221.611 1149.81 221.424 1149.81 142.076C1149.8 63.5011 1149.77 62.4464 1147.02 52.7743C1137.4 18.9014 1117.85 0.908876 1090.92 1.14617C1085.73 1.19214 1079.25 1.93885 1076.51 2.80481ZM45.9694 4.29692C22.6594 10.5611 7.37415 32.0137 1.79949 66.2891C0.366996 75.094 -0.0156659 91.2055 0.000485297 142.076C0.0116669 178.597 0.562052 210.461 1.26774 215.377C7.08715 255.954 25.3915 278.273 54.4861 280.267C78.3688 281.904 99.102 268.047 109.352 243.595C115.852 228.087 116.827 218.508 116.463 173.753L116.135 133.379L89.2261 133.045C65.9833 132.755 62.0473 132.979 60.3403 134.686C58.7102 136.316 58.3636 139.903 58.3636 155.121C58.3636 176.106 58.9028 177.484 67.12 177.484C75.1385 177.484 76.1486 180.296 75.4876 200.777C74.8689 219.899 73.0737 226.278 66.8281 231.534C62.8884 234.848 56.372 235.651 52.0746 233.351C48.735 231.563 45.1954 224.133 43.4983 215.346C41.4346 204.672 42.3093 69.3777 44.4822 62.911C47.9833 52.4947 55.3756 47.9276 64.0836 50.8013C70.3553 52.8711 74.3049 61.6599 75.3112 75.7811C76.4617 91.9311 76.2318 91.7584 96.6582 91.7584C108.314 91.7584 114.251 91.2825 115.266 90.2675C119.138 86.3949 115.968 58.6235 109.775 42.1716C98.4708 12.139 73.0165 -2.97113 45.9694 4.29692ZM799.37 5.81516C795.223 7.81046 789.802 11.2221 787.325 13.3975C781.012 18.9399 773.353 31.5664 769.392 42.9592C766.465 51.3753 766.031 54.5471 766.026 67.5315C766.021 81.0526 766.388 83.5051 769.961 93.8742C772.128 100.162 776.157 109.794 778.914 115.278C781.671 120.761 783.927 125.921 783.927 126.742C783.927 127.563 781.718 131.63 779.018 135.777C771.739 146.96 764.667 162.993 761.442 175.621C757.654 190.456 757.293 218.512 760.731 230.907C766.536 251.833 779.734 269.577 794.712 276.596C800.994 279.538 803.49 279.982 813.744 279.982C827.558 279.982 833.506 277.731 847.77 267.101C852.475 263.594 856.771 260.725 857.314 260.725C857.858 260.725 858.626 261.743 859.021 262.988C859.416 264.231 861.398 267.865 863.426 271.063L867.113 276.876H875.078C881.065 276.876 883.772 276.287 885.977 274.505C888.73 272.278 888.935 271.177 889.319 256.63L889.727 241.129L882.748 230.761C878.908 225.058 875.483 219.261 875.137 217.878C874.789 216.494 875.965 211.482 877.751 206.739C880.481 199.486 882.878 190.518 886.476 174.086C887.547 169.199 883.175 166.303 874.724 166.303C870.68 166.303 866.516 166.63 865.469 167.032C864.423 167.433 862.644 170.544 861.515 173.945C859.507 179.988 859.406 180.076 857.01 177.908C854.387 175.534 836.108 139.129 836.108 136.279C836.108 135.342 840.346 128.994 845.525 122.174C860.623 102.295 866.472 88.8399 867.871 70.7704C869.899 44.5967 856.158 16.4812 836.526 6.63014C830.431 3.57135 827.492 2.92655 818.093 2.58862C807.847 2.22087 806.28 2.49049 799.37 5.81516ZM943.993 4.68953C934.52 7.71851 929.254 11.1562 922.39 18.7908C915.398 26.5683 909.339 38.2841 904.759 52.8861L901.334 63.8043V142.076C901.334 220.084 901.344 220.383 904.216 230.907C913.368 264.436 933.338 281.773 961.162 280.34C985.83 279.07 1004.18 260.884 1012.03 229.914C1015.68 215.535 1015.73 212.986 1012.41 209.667C1009.98 207.237 1008.71 207.092 993.341 207.493C974.736 207.979 973.413 208.529 972.096 216.32C970.848 223.715 967.125 231.76 964.238 233.305C956.406 237.497 948.302 232.31 944.927 220.947C942.018 211.149 941.968 76.1873 944.87 65.0454C948.287 51.9294 954.066 47.1412 962.997 50.0273C968.606 51.8412 971.316 57.6755 972.319 70.107C973.527 85.0866 972.381 84.3039 993.123 84.3039C1008.77 84.3039 1011.15 84.0318 1012.96 82.0316C1018.53 75.8742 1011.65 43.2177 1001.48 27.5361C988.153 6.99171 965.252 -2.1089 943.993 4.68953ZM1156.61 6.14809C1147.03 11.7078 1143.45 22.7653 1148.22 32.0497C1151.64 38.6991 1155.93 42.0361 1162.62 43.2612C1172.25 45.0229 1181.02 39.8135 1184.72 30.1252C1191.14 13.3242 1172.15 -2.86927 1156.61 6.14809ZM135.393 7.27497C132.939 9.72871 132.908 11.4159 132.908 141.366C132.908 259.351 133.11 273.174 134.86 274.925C137.423 277.486 168.445 277.797 171.867 275.295C173.857 273.84 174.05 269.442 174.279 220.053C174.51 170.417 174.695 166.226 176.743 164.173C179.944 160.968 203.623 160.166 208.117 163.111L211.179 165.117V218.941C211.179 269.506 211.317 272.888 213.451 274.82C216.541 277.617 246.637 277.855 250.388 275.113C252.745 273.389 252.807 270.374 253.133 140.623C253.443 16.6327 253.325 7.79429 251.342 6.34316C249.887 5.27842 243.841 4.79016 232.134 4.79016C215.885 4.79016 214.952 4.92557 213.114 7.55201C211.439 9.94239 211.179 17.1869 211.179 61.5518C211.179 110.94 211.092 112.838 208.776 114.078C204.997 116.101 179.844 115.724 176.94 113.601C174.629 111.911 174.516 109.695 174.219 60.5877C173.943 14.9033 173.686 9.0901 171.852 7.06374C170.062 5.08583 167.722 4.79016 153.836 4.79016C139.534 4.79016 137.619 5.04858 135.393 7.27497ZM272.91 7.01779C270.972 9.16093 270.814 19.2219 270.814 141.049C270.814 267.075 270.913 272.853 273.087 274.82C275.112 276.653 280.21 276.876 320.081 276.876H364.803L367.506 274.001C370.005 271.339 370.207 269.868 370.207 254.212C370.207 231.273 371.327 232.15 342.003 232.15C328.866 232.15 319.36 231.622 317.839 230.808C312.739 228.078 311.814 222.657 311.814 195.499C311.814 168.341 312.739 162.919 317.839 160.19C319.294 159.411 327.68 158.848 337.822 158.848C361.197 158.848 360.267 159.79 360.267 136.101C360.267 122.681 359.834 117.733 358.498 115.912C356.901 113.734 355.01 113.485 338.93 113.343C329.142 113.256 320.145 113.115 318.939 113.032C317.734 112.948 315.639 111.063 314.285 108.841C312.067 105.205 311.822 102.541 311.819 82.0341L311.814 59.2646L315.445 55.633L319.077 52.0015H341.32C370.663 52.0015 369.311 53.1867 368.747 27.9461C368.404 12.5726 368.009 9.50755 366.125 7.62655C364.095 5.59771 360.166 5.38154 319.457 5.05727C277.413 4.72182 274.893 4.82743 272.91 7.01779ZM382.32 6.13194C380.381 7.26128 380.146 9.73991 380.146 29.0357C380.146 49.1551 380.315 50.7615 382.549 51.958C383.871 52.6649 390.868 53.2439 398.097 53.2439H411.242L413.704 57.2817C416.107 61.2238 416.167 63.8378 416.171 167.042C416.176 267.883 416.28 272.858 418.448 274.82C421.713 277.776 452.285 277.862 455.223 274.925C456.967 273.179 457.175 261.601 457.175 166.119V59.2646L460.806 55.633C464.334 52.1058 464.793 52.0015 476.806 52.0015C485.186 52.0015 489.588 51.5008 490.459 50.4485C491.187 49.5701 491.91 40.3415 492.126 29.1872C492.5 9.82934 492.455 9.43674 489.612 7.13457C486.878 4.9206 483.874 4.79264 435.606 4.82743C403.207 4.85228 383.698 5.32935 382.32 6.13194ZM506.871 7.27497C504.602 9.54359 504.386 11.4159 504.386 28.8244C504.386 53.0028 503.566 52.0015 523.36 52.0015C536.864 52.0015 537.915 52.1791 539.724 54.7633C541.438 57.2096 541.658 69.6833 541.658 164.439C541.658 259.194 541.878 271.668 543.593 274.114C545.413 276.715 546.423 276.876 560.848 276.876C574.083 276.876 576.57 276.552 579.103 274.502L582.036 272.127L582.658 163.828C583.263 58.4334 583.343 55.4802 585.69 53.7644C587.401 52.5133 591.799 52.0015 600.821 52.0015C610.727 52.0015 613.972 51.5691 615.493 50.0496C617.098 48.4432 617.445 44.6974 617.445 28.9288C617.445 11.4159 617.23 9.54483 614.96 7.27497C612.555 4.86967 610.819 4.79016 560.916 4.79016C511.012 4.79016 509.276 4.86967 506.871 7.27497ZM1159.75 7.78682C1150.03 12.1067 1146.2 23.8809 1151.65 32.6945C1160.78 47.4679 1182.72 41.0609 1182.73 23.6175C1182.74 16.5445 1179.63 11.524 1173.37 8.49128C1167.47 5.63748 1164.89 5.50328 1159.75 7.78682ZM1157.89 22.805C1157.89 31.3639 1158.24 33.3654 1159.75 33.3654C1161.06 33.3654 1161.62 32.0534 1161.62 29.017C1161.62 25.1991 1162 24.6686 1164.74 24.6686C1167.09 24.6686 1168.38 25.7495 1169.94 29.017C1171.08 31.4086 1172.75 33.3654 1173.65 33.3654C1175.74 33.3654 1175.7 32.8138 1173.33 28.2206C1171.55 24.7854 1171.55 24.2474 1173.33 22.2832C1178.07 17.0464 1173.76 12.2446 1164.31 12.2446H1157.89V22.805ZM1161.62 18.4566C1161.62 21.5701 1162.11 22.1838 1164.62 22.1838C1169.19 22.1838 1171.56 20.9116 1171.56 18.4566C1171.56 16.0016 1169.19 14.7294 1164.62 14.7294C1162.11 14.7294 1161.62 15.3431 1161.62 18.4566ZM812.967 48.2096C811.513 48.8222 808.997 51.184 807.376 53.4576C802.964 59.6422 803.287 74.2007 808.103 86.1675C810.026 90.9508 811.806 95.0992 812.056 95.3874C813.935 97.5405 827.904 78.0335 829.965 70.3803C833.594 56.9003 823.52 43.7594 812.967 48.2096ZM677.534 50.6584C674.972 52.2201 672.846 55.0888 671.322 59.0397C669.15 64.6703 669.005 69.8796 669.005 142.076V219.105L671.873 224.479C673.784 228.059 676.156 230.444 678.977 231.623C688.146 235.453 695.204 232.778 699.627 223.797L702.549 217.862V140.833V63.8043L699.627 57.8693C695.042 48.5575 685.881 45.5683 677.534 50.6584ZM1082.74 50.9715C1080.85 52.4562 1078.27 55.9498 1077 58.7365C1074.85 63.4912 1074.7 68.5155 1074.68 140.068C1074.66 194.875 1075.06 217.699 1076.11 221.194C1079.54 232.657 1093.15 237.45 1100.73 229.87C1108 222.595 1108.19 220.285 1108.19 140.536C1108.19 90.4588 1107.76 66.273 1106.78 62.3979C1105.98 59.2211 1103.63 54.9397 1101.35 52.5295C1097.94 48.9104 1096.51 48.2743 1091.75 48.2743C1087.9 48.2743 1085.1 49.1116 1082.74 50.9715ZM803.923 175.346C800.478 183.383 798.836 192.644 798.836 204.032C798.836 224.382 804.53 233.483 817.324 233.581C824.766 233.639 833.179 229.532 836.031 224.451C837.764 221.361 837.692 220.653 835.105 215.328C830.312 205.463 808.627 170.03 807.382 170.03C806.734 170.03 805.177 172.423 803.923 175.346Z" fill="white"/>
</svg>
